# xmcd
#
# Track frame offsets: 
#        150
#        13487
#        29675
#        42350
#        62575
#        81900
#        97437
#        117112
#        132312
#        151737
#        166137
#        175812
#
# Disc length: 2530 seconds
#
# Revision: 0
# Processed by: cddbd v1.5.1PL0 Copyright (c) Steve Scherf et al.
# Submitted via: ExactAudioCopy v0.95a5
#
DISCID=a009e00c
DTITLE=Rune Hauge - The One You Need
DYEAR=1995
DGENRE=Blues
TTITLE0=As I went out one morning
TTITLE1=On my own
TTITLE2=The one you need
TTITLE3=Sweet dreams come soon
TTITLE4=Through the gates
TTITLE5=Peggy Gordon
TTITLE6=Song bird
TTITLE7=Lily of the west
TTITLE8=The moon is a harsh mistress
TTITLE9=Blue moon
TTITLE10=You ain't gonna get my old guitar
TTITLE11=Fair and tender ladies
EXTD=
EXTT0=
EXTT1=
EXTT2=
EXTT3=
EXTT4=
EXTT5=
EXTT6=
EXTT7=
EXTT8=
EXTT9=
EXTT10=
EXTT11=
PLAYORDER=
